<svg xmlns="http://www.w3.org/2000/svg" viewBox="0 -15 512 512">
    <title>HTML5 Logo</title>
    <polygon fill="#E44D26" points="107.644,420.88 74.633,50.62 437.367,50.62 404.321,420.819 255.778,462"/>
    <polygon fill="#F16529" points="256,430.523 376.03,397.246 404.27,80.894 256,80.894"/>
    <polygon fill="#EBEBEB" points="256,218.217 195.91,218.217 191.76,171.716 256,171.716 256,126.305 142.132,126.305 143.219,138.488 154.38,263.627 256,263.627"/>
    <polygon fill="#EBEBEB" points="256,336.153 255.801,336.206 205.227,322.55 201.994,286.333 177.419,286.333 156.409,286.333 162.771,357.634 255.791,383.457 256,383.399"/>
    <polygon fill="#FFFFFF" points="255.843,218.217 255.843,263.627 311.761,263.627 306.49,322.521 255.843,336.191 255.843,383.435 348.937,357.634 349.62,349.962 360.291,230.411 361.399,218.217 349.162,218.217"/>
    <polygon fill="#FFFFFF" points="255.843,126.305 255.843,154.509 255.843,171.605 255.843,171.716 365.385,171.716 365.385,171.716 365.531,171.716 366.442,161.509 368.511,138.488 369.597,126.305"/>
</svg> 