<svg xmlns="http://www.w3.org/2000/svg" viewBox="0 -15 512 512"><title>JS Logo</title><path fill="#e5d044" d="M107.644 420.88L74.633 50.62h362.734l-33.046 370.199L255.778 462z"/><path fill="#f0df6c" d="M256 430.523l120.03-33.277 28.24-316.352H256z"/><path fill="#EBEBEB" d="M250 218.217v-91.912H142.132v45.411H205v91.911h45zM250 336.153l-44.773-13.603-3.233-36.217h-45.585l6.362 71.301L250 383.399z"/><path fill="#FFF" d="M261 218.217v45.41h50.761l-5.271 58.894-45.49 13.67v47.244l87.937-25.801.683-7.672 10.671-119.551 1.108-12.194h-12.237zM261 126.305V171.716h104.531l.911-10.207 2.069-23.021 1.086-12.183z"/></svg>