<svg xmlns="http://www.w3.org/2000/svg" viewBox="0 -15 512 512"><title>HTML5 Logo</title><path fill="#E44D26" d="M107.644 420.88L74.633 50.62h362.734l-33.046 370.199L255.778 462z"/><path fill="#F16529" d="M256 430.523l120.03-33.277 28.24-316.352H256z"/><path fill="#EBEBEB" d="M256 218.217h-60.09l-4.15-46.501H256v-45.411H142.132l1.087 12.183 11.161 125.139H256zM256 336.153l-.199.053-50.574-13.656-3.233-36.217h-45.585l6.362 71.301 93.02 25.823.209-.058z"/><path fill="#FFF" d="M255.843 218.217v45.41h55.918l-5.271 58.894-50.647 13.67v47.244l93.094-25.801.683-7.672 10.671-119.551 1.108-12.194h-12.237zM255.843 126.305V171.716h109.688l.911-10.207 2.069-23.021 1.086-12.183z"/></svg>