<svg xmlns="http://www.w3.org/2000/svg" viewBox="0 -15 512 512">
    <title>JS Logo</title>
    <polygon fill="#e5d044" points="107.644,420.88 74.633,50.62 437.367,50.62 404.321,420.819 255.778,462"/>
    <polygon fill="#f0df6c" points="256,430.523 376.03,397.246 404.27,80.894 256,80.894"/>
    
    
    <!--  width = 45.41  -->
    
    <!--  Dark side upper part of letter  -->
    <polygon fill="#EBEBEB" points="250,218.217   250,171.716 250,126.305 142.132,126.305  142.132,171.716   205,171.716 205,263.627 250,263.627"/>
    <!--  Dark side lower part of letter  -->
    <polygon fill="#EBEBEB" points="250,336.153  205.227,322.55 201.994,286.333 177.419,286.333 156.409,286.333 162.771,357.634  250,383.399"/>
    <!--  Light side lower part of letter  -->
    <polygon fill="#FFFFFF" points="261,218.217 261,263.627 311.761,263.627 306.49,322.521 261,336.191 261,383.435 348.937,357.634 349.62,349.962 360.291,230.411 361.399,218.217 349.162,218.217"/>
    <!--  Light side upper part of letter  -->
    <polygon fill="#FFFFFF" points="261,126.305 261,154.509 261,171.605 261,171.716 365.385,171.716 365.385,171.716 365.531,171.716 366.442,161.509 368.511,138.488 369.597,126.305"/>
</svg> 